<svg id="Icons" height="512" viewBox="0 0 74 74" width="512" xmlns="http://www.w3.org/2000/svg"><path d="m37 45.286a19.735 19.735 0 1 1 19.734-19.735 19.756 19.756 0 0 1 -19.734 19.735zm0-37.47a17.735 17.735 0 1 0 17.734 17.735 17.755 17.755 0 0 0 -17.734-17.735z"/><path d="m52.266 68.184a19.806 19.806 0 0 1 -16.079-8.284 1 1 0 1 1 1.626-1.162 17.736 17.736 0 1 0 17.252-27.8 1 1 0 0 1 .313-1.976 19.734 19.734 0 0 1 -3.112 39.222z"/><path d="m3.01 49.17h-.01a1 1 0 0 1 -.986-1.014 19.678 19.678 0 0 1 16.609-19.194 1 1 0 0 1 .315 1.976 17.679 17.679 0 0 0 -14.928 17.246 1 1 0 0 1 -1 .986z"/><path d="m13.849 66.44a1 1 0 0 1 -.414-.09 19.4 19.4 0 0 1 -2.775-1.561 1 1 0 0 1 1.119-1.658 17.217 17.217 0 0 0 2.486 1.4 1 1 0 0 1 -.416 1.91z"/><path d="m22.01 68.17a1 1 0 0 1 -.013-2 17.792 17.792 0 0 0 14.19-7.431 17.571 17.571 0 0 0 3.283-10.289 18.123 18.123 0 0 0 -.484-4.171 1 1 0 0 1 1.948-.459 20.266 20.266 0 0 1 .536 4.63 19.556 19.556 0 0 1 -3.657 11.45 19.793 19.793 0 0 1 -15.791 8.27z"/><path d="m6.261 60.02a1 1 0 0 1 -.827-.437 19.19 19.19 0 0 1 -1.6-2.828 1 1 0 1 1 1.818-.831 17.305 17.305 0 0 0 1.437 2.533 1 1 0 0 1 -.263 1.389.99.99 0 0 1 -.565.174z"/></svg>